# AST/ASF file generated using VICON BodyLanguage
# -----------------------------------------------
:version 1.10
:name VICON
:units
  mass 1.0
  length 0.45
  angle deg
:documentation
   .ast/.asf automatically generated from VICON data using
   VICON BodyBuilder and BodyLanguage model FoxedUp or BRILLIANT.MOD
:root
   order TX TY TZ RX RY RZ
   axis XYZ
   position 0 0 0  
   orientation 0 0 0 
:bonedata
  begin
     id 1 
     name lhipjoint
     direction 0.584852 -0.759097 0.285867 
     length 2.43633 
     axis 0 0 0  XYZ
  end
  begin
     id 2 
     name lfemur
     direction 0.34202 -0.939693 0  
     length 7.14704  
     axis 0 0 20  XYZ
    dof rx ry rz
    limits (-160.0 20.0)
           (-70.0 70.0)
           (-60.0 70.0)
  end
  begin
     id 3 
     name ltibia
     direction 0.342022 -0.939692 0   
     length 7.68483   
     axis 0 0 20   XYZ
    dof rx
    limits (-10.0 170.0)
  end
  begin
     id 4 
     name lfoot
     direction 0.0999605 -0.274639 0.956337   
     length 2.40452   
     axis -90 7.62852e-016 20   XYZ
    dof rx rz
    limits (-45.0 90.0)
           (-70.0 20.0)
  end
  begin
     id 5 
     name ltoes
     direction 1.53468e-011 -4.21881e-011 1   
     length 1.19837   
     axis -90 7.62852e-016 20   XYZ
    dof rx
    limits (-90.0 20.0)
  end
  begin
     id 6 
     name rhipjoint
     direction -0.569886 -0.769002 0.289597   
     length 2.40495  
     axis 0 0 0  XYZ 
  end
  begin
     id 7 
     name rfemur
     direction -0.34202 -0.939693 0   
     length 7.45086   
     axis 0 0 -20   XYZ
    dof rx ry rz
    limits (-160.0 20.0)
           (-70.0 70.0)
           (-70.0 60.0)
  end
  begin
     id 8 
     name rtibia
     direction -0.34202 -0.939693 0   
     length 7.76831   
     axis 0 0 -20   XYZ
    dof rx
    limits (-10.0 170.0)
 end
 begin
     id 9 
     name rfoot
     direction -0.0798572 -0.219406 0.97236   
     length 2.35911  
     axis -90 -7.62852e-016 -20   XYZ
    dof rx rz
    limits (-45.0 90.0)
           (-20.0 70.0)
  end
  begin
     id 10 
     name rtoes
     direction -1.53469e-011 -4.21728e-011 1   
     length 1.18261   
     axis -90 -7.62852e-016 -20   XYZ
    dof rx
    limits (-90.0 20.0)
  end
  begin
     id 11 
     name lowerback
     direction 0.0242088 0.999437 0.0232389   
     length 2.1561   
     axis 0 0 0   XYZ
    dof rx ry rz
    limits (-20.0 45.0)
           (-30.0 30.0)
           (-30.0 30.0)
  end
  begin
     id 12 
     name upperback
     direction -0.0356893 0.999013 -0.0264323   
     length 2.14431   
     axis 0 0 0   XYZ
    dof rx ry rz
    limits (-20.0 45.0)
           (-30.0 30.0)
           (-30.0 30.0)
  end
  begin
     id 13 
     name thorax
     direction -0.0472163 0.998194 -0.0371284   
     length 2.16169   
     axis 0 0 0   XYZ
    dof rx ry rz
    limits (-20.0 45.0)
           (-30.0 30.0)
           (-30.0 30.0)
  end
  begin
     id 14 
     name lowerneck
     direction 0.00863244 0.999921 0.00911972   
     length 1.58651   
     axis 0 0 0   XYZ
    dof rx ry rz
    limits (-20.0 45.0)
           (-30.0 30.0)
           (-30.0 30.0)
  end
  begin
     id 15 
     name upperneck
     direction 0.149523 0.979068 -0.138086   
     length 1.57486   
     axis 0 0 0   XYZ
    dof rx ry rz
    limits (-20.0 45.0)
           (-30.0 30.0)
           (-30.0 30.0)
  end
  begin
     id 16
     name head
     direction 0.0445219 0.997708 -0.0509576  
     length 1.6019  
     axis 0 0 0   XYZ
    dof rx ry rz
    limits (-20.0 45.0)
           (-30.0 30.0)
           (-30.0 30.0)
  end
  begin
     id 17 
     name lclavicle
     direction 0.911271 0.381667 -0.154644  
     length 3.80848  
     axis 0 0 0   XYZ
    dof ry rz
    limits (-20.0 10.0)
           (0.0 20.0)
  end
  begin
     id 18 
     name lhumerus
     direction 1 -4.49003e-011 2.1308e-027   
     length 5.19069   
     axis 180 -30 -90   XYZ
    dof rx ry rz
    limits (-60.0 90.0)
           (-90.0 90.0)
           (-90.0 90.0)
  end
  begin
     id 19
     name lradius
     direction 1 -4.48914e-011 4.01554e-027   
     length 3.30016   
     axis 180 -30 -90   XYZ
    dof rx
    limits (-10.0 170.0)
  end
  begin
     id 20
     name lwrist
     direction 1 -4.49003e-011 1.1934e-026   
     length 1.65008   
     axis -8.46377e-015 90 90   XYZ
    dof ry
    limits (-180.0 0.0)
 end
  begin
     id 21 
     name lhand
     direction 1 -4.49034e-011 2.38659e-026   
     length 0.707698   
     axis -1.52313e-014 90 90   XYZ
    dof rx rz
    limits (-90.0 90.0)
           (-45.0 45.0)
  end
  begin
     id 22 
     name lfingers
     direction 1 -4.48691e-011 4.77775e-026   
     length 0.570564   
     axis -3.04623e-014 90 90   XYZ
    dof rx
    limits (0.0 90.0)
  end
  begin
     id 23
     name lthumb
     direction 0.707107 -6.34832e-011 0.707107   
     length 0.819219   
     axis -90 45 -1.62303e-014   XYZ
    dof rx rz
    limits (-45.0 45.0)
           (-45.0 45.0)
  end
  begin
     id 24 
     name rclavicle
     direction -0.815579 0.573708 -0.0754329   
     length 3.54371  
     axis 0 0 0   XYZ 
    dof ry rz
    limits (-10.0 20.0)
           (-20.0 0.0)
  end
  begin
     id 25 
     name rhumerus
     direction -1 -4.48956e-011 3.05351e-028  
     length 5.23924   
     axis 180 30 90   XYZ
    dof rx ry rz
    limits (-90.0 60.0)
           (-90.0 90.0)
           (-90.0 90.0)
  end
  begin
     id 26 
     name rradius
     direction -1 -4.49013e-011 3.53849e-027   
     length 3.32953   
     axis 180 30 90   XYZ
    dof rx
    limits (-10.0 170.0)
  end
  begin
     id 27 
     name rwrist
     direction -1 -4.48901e-011 1.19374e-026   
     length 1.66477   
     axis -8.46377e-015 -90 -90   XYZ
    dof ry
    limits (-180.0 0.0)
  end
  begin
     id 28
     name rhand
     direction -1 -4.48877e-011 2.38764e-026   
     length 0.607414   
     axis -1.52313e-014 -90 -90   XYZ
    dof rx rz
    limits (-90.0 90.0)
           (-45.0 45.0)
  end
  begin
     id 29
     name rfingers
     direction -1 -4.48882e-011 4.77521e-026   
     length 0.489712   
     axis -3.04623e-014 -90 -90   XYZ
    dof rx
    limits (0.0 90.0)
  end
  begin
     id 30
     name rthumb
     direction -0.707107 -6.34974e-011 0.707107   
     length 0.703132   
     axis -90 -45 1.62303e-014   XYZ
    dof rx rz
    limits (-45.0 45.0)
           (-45.0 45.0)
  end
:hierarchy
  begin
    root lhipjoint rhipjoint lowerback
    lhipjoint lfemur
    lfemur ltibia
    ltibia lfoot
    lfoot ltoes
    rhipjoint rfemur
    rfemur rtibia
    rtibia rfoot
    rfoot rtoes
    lowerback upperback
    upperback thorax
    thorax lowerneck lclavicle rclavicle
    lowerneck upperneck
    upperneck head
    lclavicle lhumerus
    lhumerus lradius
    lradius lwrist
    lwrist lhand lthumb
    lhand lfingers
    rclavicle rhumerus
    rhumerus rradius
    rradius rwrist
    rwrist rhand rthumb
    rhand rfingers
  end

#!OML:ASF E:\VariousWalksJay\Project 1\Capture day 1\Session 1\Actor2.ASF
:FULLY-SPECIFIED
:DEGREES
559
root 10.2162 16.1889 -3.2062 -12.2853 -42.0103 10.5495
lowerback -6.08266 -3.53454 -0.972084
upperback 6.47119 -4.23404 -6.25929
thorax 9.92707 -1.90839 -6.8275
lowerneck -1.42619 3.26073 3.89753
upperneck 33.3392 3.47595 -0.84661
head 11.0951 1.61083 -0.734972
rclavicle 2.72335e-014 -8.66701e-014
rhumerus -39.8195 26.5554 -94.4172
rradius 70.6408
rwrist 0.107176
rhand -22.3308 -13.0971
rfingers 7.12502
rthumb 4.08933 -43.0376
lclavicle 2.72335e-014 -8.66701e-014
lhumerus 1.39874 -21.5165 72.3815
lradius 57.7773
lwrist 64.5706
lhand -35.7264 15.917
lfingers 7.12502
lthumb -8.84578 45.7116
rfemur -44.7507 8.23001 17.678
rtibia 42.8305
rfoot -19.9947 -4.93134
rtoes -25.894
lfemur 5.23533 14.8116 -35.0571
ltibia 35.6553
lfoot -30.9406 2.2827
ltoes -4.52966
560
root 10.1781 16.2026 -3.14357 -11.8971 -41.9524 10.5945
lowerback -6.09758 -3.53582 -0.914259
upperback 6.46312 -4.24265 -6.23843
thorax 9.92315 -1.90895 -6.83887
lowerneck -1.29718 3.23306 3.80191
upperneck 32.9921 3.4724 -0.86339
head 10.9292 1.60191 -0.725543
rclavicle 2.82274e-014 -3.26007e-014
rhumerus -39.7813 26.5367 -94.3894
rradius 70.6246
rwrist 0.0387168
rhand -22.2832 -13.1225
rfingers 7.12502
rthumb 4.13529 -43.0622
lclavicle 2.82274e-014 -3.26007e-014
lhumerus 1.64748 -21.4799 72.2741
lradius 57.8298
lwrist 64.5762
lhand -35.7647 15.8924
lfingers 7.12502
lthumb -8.88273 45.6854
rfemur -44.6937 8.38068 17.4104
rtibia 41.5883
rfoot -19.6894 -5.01065
rtoes -25.0644
lfemur 5.29656 14.7794 -35.1306
ltibia 35.1952
lfoot -30.6556 2.01112
ltoes -4.6617
561
root 10.1406 16.2166 -3.08145 -11.5016 -41.8969 10.6472
lowerback -6.08802 -3.52524 -0.859069
upperback 6.46825 -4.23503 -6.22744
thorax 9.9206 -1.90144 -6.85635
lowerneck -1.15493 3.1951 3.71959
upperneck 32.6113 3.45063 -0.869791
head 10.7487 1.58812 -0.716482
rclavicle -3.8763e-014 -4.77083e-014
rhumerus -39.7269 26.487 -94.3576
rradius 70.6012
rwrist -0.00581719
rhand -22.2265 -13.1418
rfingers 7.12502
rthumb 4.19002 -43.0804
lclavicle -3.8763e-014 -4.77083e-014
lhumerus 1.93614 -21.4779 72.1567
lradius 57.8904
lwrist 64.5664
lhand -35.8014 15.8799
lfingers 7.12502
lthumb -8.91818 45.6714
rfemur -44.6678 8.54536 17.1145
rtibia 40.4308
rfoot -19.3861 -5.09418
rtoes -24.1386
lfemur 5.33584 14.7341 -35.2197
ltibia 34.7411
lfoot -30.3542 1.76316
ltoes -4.85123
562
root 10.1034 16.2311 -3.01988 -11.1025 -41.8392 10.7106
lowerback -6.0491 -3.51287 -0.818967
upperback 6.48174 -4.22412 -6.22155
thorax 9.91094 -1.89358 -6.8684
lowerneck -0.991282 3.15326 3.6364
upperneck 32.1954 3.42131 -0.865147
head 10.5517 1.57247 -0.704224
rclavicle 1.07344e-014 2.54444e-014
rhumerus -39.6657 26.4369 -94.3269
rradius 70.5702
rwrist -0.0311131
rhand -22.1558 -13.1379
rfingers 7.12502
rthumb 4.2583 -43.0751
lclavicle 1.07344e-014 2.54444e-014
lhumerus 2.24654 -21.4881 72.0349
lradius 57.9582
lwrist 64.5487
lhand -35.8378 15.8768
lfingers 7.12502
lthumb -8.9533 45.6669
rfemur -44.6679 8.71731 16.7914
rtibia 39.3576
rfoot -19.0837 -5.18501
rtoes -23.1109
lfemur 5.34897 14.6717 -35.3257
ltibia 34.3014
lfoot -30.0323 1.52582
ltoes -5.0621
563
root 10.0664 16.2461 -2.95881 -10.6918 -41.7803 10.7763
lowerback -5.99057 -3.48741 -0.776551
upperback 6.50939 -4.1953 -6.22916
thorax 9.90628 -1.87616 -6.89377
lowerneck -0.814555 3.09651 3.57269
upperneck 31.741 3.36523 -0.843409
head 10.339 1.54922 -0.69174
rclavicle 8.15017e-015 -2.54444e-014
rhumerus -39.5848 26.3481 -94.295
rradius 70.5317
rwrist -0.0368225
rhand -22.0705 -13.1254
rfingers 7.12502
rthumb 4.34067 -43.0609
lclavicle 8.15017e-015 -2.54444e-014
lhumerus 2.59865 -21.545 71.8999
lradius 58.0325
lwrist 64.5333
lhand -35.8632 15.8947
lfingers 7.12502
lthumb -8.97776 45.6836
rfemur -44.6957 8.89158 16.4531
rtibia 38.3713
rfoot -18.7829 -5.28946
rtoes -21.9809
lfemur 5.33237 14.5918 -35.4412
ltibia 33.8847
lfoot -29.6995 1.30492
ltoes -5.21785
564
root 10.0295 16.2617 -2.89814 -10.2678 -41.7181 10.8369
lowerback -5.90388 -3.46516 -0.741258
upperback 6.54527 -4.17095 -6.23778
thorax 9.89396 -1.86174 -6.91486
lowerneck -0.619872 3.03471 3.51438
upperneck 31.2494 3.30257 -0.821133
head 10.1111 1.52387 -0.680779
rclavicle 1.37161e-014 1.74931e-014
rhumerus -39.4948 26.2689 -94.2597
rradius 70.4885
rwrist -0.0196288
rhand -21.9739 -13.1041
rfingers 7.12502
rthumb 4.43395 -43.0377
lclavicle 1.37161e-014 1.74931e-014
lhumerus 2.96516 -21.6051 71.7618
lradius 58.1178
lwrist 64.529
lhand -35.8814 15.9162
lfingers 7.12502
lthumb -8.99536 45.7044
rfemur -44.7444 9.06004 16.1117
rtibia 37.4743
rfoot -18.4786 -5.41435
rtoes -20.7869
lfemur 5.28062 14.4932 -35.5582
ltibia 33.5031
lfoot -29.3589 1.1019
ltoes -5.38124
565
root 9.99259 16.2776 -2.83786 -9.8187 -41.6537 10.8798
lowerback -5.79268 -3.43127 -0.690746
upperback 6.59273 -4.13253 -6.25553
thorax 9.87983 -1.83906 -6.95159
lowerneck -0.425456 2.95766 3.48805
upperneck 30.7298 3.21458 -0.792321
head 9.87536 1.49131 -0.675088
rclavicle -5.53615e-014 -8.5875e-014
rhumerus -39.3917 26.15 -94.2217
rradius 70.446
rwrist 0.00697729
rhand -21.8799 -13.0813
rfingers 7.12502
rthumb 4.52473 -43.013
lclavicle -5.53615e-014 -8.5875e-014
lhumerus 3.36985 -21.7191 71.6033
lradius 58.2175
lwrist 64.5495
lhand -35.8887 15.9307
lfingers 7.12502
lthumb -9.00236 45.7186
rfemur -44.817 9.21531 15.7849
rtibia 36.6703
rfoot -18.1578 -5.56824
rtoes -19.5815
lfemur 5.18859 14.3735 -35.6648
ltibia 33.1691
lfoot -29.0194 0.898623
ltoes -5.60939
566
root 9.95566 16.2938 -2.77777 -9.34742 -41.5832 10.9079
lowerback -5.66086 -3.39465 -0.63372
upperback 6.65506 -4.09116 -6.27758
thorax 9.86967 -1.81414 -6.99592
lowerneck -0.236958 2.87236 3.4891
upperneck 30.1797 3.11483 -0.766996
head 9.6326 1.45599 -0.676046
rclavicle -2.04748e-014 4.6118e-014
rhumerus -39.2664 26.0082 -94.1758
rradius 70.402
rwrist 0.0467814
rhand -21.789 -13.0539
rfingers 7.12502
rthumb 4.61254 -42.9837
lclavicle -2.04748e-014 4.6118e-014
lhumerus 3.80647 -21.8574 71.4309
lradius 58.339
lwrist 64.5993
lhand -35.8958 15.9409
lfingers 7.12502
lthumb -9.00923 45.7285
rfemur -44.9105 9.34503 15.4763
rtibia 35.9636
rfoot -17.8102 -5.74702
rtoes -18.374
lfemur 5.05075 14.2327 -35.7624
ltibia 32.8957
lfoot -28.6857 0.692433
ltoes -5.87674
567
root 9.91871 16.31 -2.71787 -8.85063 -41.5086 10.9124
lowerback -5.50414 -3.35952 -0.564711
upperback 6.7286 -4.05374 -6.29792
thorax 9.85606 -1.79043 -7.04445
lowerneck -0.0511084 2.78748 3.51301
upperneck 29.6026 3.01816 -0.753196
head 9.38401 1.4232 -0.684416
rclavicle 1.05654e-013 -7.15625e-014
rhumerus -39.1291 25.8594 -94.1204
rradius 70.3638
rwrist 0.0815345
rhand -21.7171 -13.0349
rfingers 7.12502
rthumb 4.68194 -42.9632
lclavicle 1.05654e-013 -7.15625e-014
lhumerus 4.25921 -21.9998 71.2569
lradius 58.4817
lwrist 64.6583
lhand -35.889 15.9397
lfingers 7.12502
lthumb -9.00273 45.7276
rfemur -45.0215 9.44636 15.1989
rtibia 35.3571
rfoot -17.4266 -5.94753
rtoes -17.2065
lfemur 4.8627 14.0752 -35.8413
ltibia 32.6956
lfoot -28.3617 0.477233
ltoes -6.20333
568
root 9.8818 16.3255 -2.6581 -8.33296 -41.4281 10.8965
lowerback -5.31819 -3.33361 -0.493753
upperback 6.81414 -4.03013 -6.3116
thorax 9.83716 -1.77374 -7.08693
lowerneck 0.131814 2.7079 3.54734
upperneck 28.9935 2.93272 -0.751176
head 9.12794 1.39529 -0.697429
rclavicle 4.17448e-014 -1.90833e-014
rhumerus -38.9856 25.7272 -94.0492
rradius 70.3446
rwrist 0.103477
rhand -21.6625 -13.0227
rfingers 7.12502
rthumb 4.73464 -42.9498
lclavicle 4.17448e-014 -1.90833e-014
lhumerus 4.72515 -22.1313 71.0755
lradius 58.6503
lwrist 64.7351
lhand -35.8921 15.9099
lfingers 7.12502
lthumb -9.00568 45.6977
rfemur -45.1453 9.51286 14.9558
rtibia 34.851
rfoot -17.0003 -6.1632
rtoes -16.1066
lfemur 4.62453 13.9121 -35.9006
ltibia 32.5797
lfoot -28.0533 0.256386
ltoes -6.62651
569
root 9.84496 16.3405 -2.59885 -7.78487 -41.3467 10.8441
lowerback -5.10585 -3.28945 -0.38563
upperback 6.92142 -3.98515 -6.33414
thorax 9.82629 -1.74312 -7.15738
lowerneck 0.302271 2.61253 3.63041
upperneck 28.3445 2.82206 -0.743534
head 8.86319 1.36109 -0.71824
rclavicle 1.13307e-014 5.32743e-014
rhumerus -38.8155 25.512 -93.9661
rradius 70.339
rwrist 0.116724
rhand -21.6445 -13.0171
rfingers 7.12502
rthumb 4.75204 -42.9438
lclavicle 1.13307e-014 5.32743e-014
lhumerus 5.25636 -22.3339 70.8503
lradius 58.8443
lwrist 64.8366
lhand -35.8879 15.8914
lfingers 7.12502
lthumb -9.00167 45.6794
rfemur -45.2805 9.55959 14.7557
rtibia 34.4445
rfoot -16.5306 -6.3792
rtoes -15.0714
lfemur 4.33191 13.7473 -35.9262
ltibia 32.5531
lfoot -27.7589 0.0251309
ltoes -7.11387
